<svg xmlns="http://www.w3.org/2000/svg" height="200" version="1.1" width="200" style=""><rect id="backgroundrect" width="100%" height="100%" x="0" y="0" fill="none" stroke="none" style="--darkreader-inline-fill:none; --darkreader-inline-stroke:none;" data-darkreader-inline-fill="" data-darkreader-inline-stroke=""/>
    
<g class="currentLayer" style=""><title>Layer 1</title><g id="View Layer_LineSet" inkscape:groupmode="lineset" inkscape:label="View Layer_LineSet" xmlns:inkscape="http://www.inkscape.org/namespaces/inkscape" class="selected">
        <g id="strokes" inkscape:groupmode="layer" inkscape:label="strokes" xmlns:inkscape="http://www.inkscape.org/namespaces/inkscape">
            <path d="M99.63684916496277,121.93021416664124 L90.9758460521698,126.93021416664124 L82.31585001945496,131.93021416664124 L73.65584635734558,136.93021416664124 L64.99585032463074,141.93021416664124 L56.33484721183777,146.93021416664124 L47.67484736442566,151.93021416664124 L39.01484751701355,156.93021416664124 L30.353848218917847,161.93021416664124 L21.693848371505737,166.93021416664124 L20.18584895133972,167.8012011051178 L15.185848951339722,159.14020562171936 L10.185848951339722,150.48020195960999 L6.103848218917847,143.4102098941803 L14.763848066329956,138.4102098941803 L23.424849271774292,133.4102098941803 L32.08484721183777,128.4102098941803 L40.74484705924988,123.4102098941803 L49.40484690666199,118.4102098941803 L58.065850019454956,113.4102098941803 L66.7258460521698,108.4102098941803 L75.38584971427917,103.4102098941803 L84.04584574699402,98.4102098941803 L85.5548484325409,97.5402147769928 L85.5548484325409,87.5402147769928 L85.5548484325409,77.5402147769928 L85.5548484325409,67.5402147769928 L85.5548484325409,57.54021096229553 L85.5548484325409,47.54021096229553 L85.5548484325409,37.54021096229553 L85.5548484325409,27.540210962295532 L85.5548484325409,17.540212869644165 L85.5548484325409,7.540212869644165 L85.5548484325409,5.798212289810181 L95.5548484325409,5.798212289810181 L105.5548484325409,5.798212289810181 L113.71785044670105,5.798212289810181 L113.71785044670105,15.79821228981018 L113.71785044670105,25.798210382461548 L113.71785044670105,35.79821038246155 L113.71785044670105,45.79821038246155 L113.71785044670105,55.79821419715881 L113.71785044670105,65.79821038246155 L113.71785044670105,75.79821038246155 L113.71785044670105,85.79821038246155 L113.71785044670105,95.79821038246155 L113.71785044670105,97.5402147769928 L122.37884593009949,102.5402147769928 L131.03884196281433,107.5402147769928 L139.6988456249237,112.5402147769928 L148.35883402824402,117.5402147769928 L157.01984477043152,122.5402147769928 L165.6798484325409,127.5402147769928 L174.3398368358612,132.5402147769928 L182.99984049797058,137.5402147769928 L191.66083598136902,142.5402147769928 L193.16884684562683,143.41120171546936 L188.16884684562683,152.07120537757874 L183.16884684562683,160.7312090396881 L179.08684611320496,167.8012011051178 L170.42684245109558,162.8012011051178 L161.7668387889862,157.8012011051178 L153.10683512687683,152.8012011051178 L144.4458396434784,147.8012011051178 L135.78583598136902,142.8012011051178 L127.1258475780487,137.8012011051178 L118.46585154533386,132.8012011051178 L109.8048484325409,127.8012011051178 L101.14485239982605,122.8012011051178 L99.63684916496277,121.93021416664124 " fill="none" stroke="#ffffff" stroke-linecap="butt" stroke-linejoin="round" stroke-opacity="1.0" stroke-width="3.0" id="svg_1" style="--darkreader-inline-fill:none; --darkreader-inline-stroke:#ffffff;" data-darkreader-inline-fill="" data-darkreader-inline-stroke=""/>
        </g>
    </g></g></svg>